<?xml version="1.0" encoding="UTF-8"?>
<!DOCTYPE svg PUBLIC "-//W3C//DTD SVG 1.1//EN" "http://www.w3.org/Graphics/SVG/1.1/DTD/svg11.dtd">
<!-- Creator: CorelDRAW X8 -->
<svg xmlns="http://www.w3.org/2000/svg" xml:space="preserve" width="3.96803in" height="2.70739in" version="1.1" style="shape-rendering:geometricPrecision; text-rendering:geometricPrecision; image-rendering:optimizeQuality; fill-rule:evenodd; clip-rule:evenodd"
viewBox="0 0 962 656"
 xmlns:xlink="http://www.w3.org/1999/xlink">
 <defs>
  <style type="text/css">
   <![CDATA[
    .fil0 {fill:#FEFEFE}
    .fil1 {fill:#FEFEFE;fill-rule:nonzero}
   ]]>
  </style>
 </defs>
 <g id="Layer_x0020_1">
  <metadata id="CorelCorpID_0Corel-Layer"/>
  <path class="fil0" d="M654 544l55 0c1,-5 4,-11 6,-16l14 -33c1,-3 6,-16 8,-17l141 0 29 66 55 0c-1,-5 -5,-12 -8,-17 -2,-6 -5,-13 -8,-18 -16,-35 -32,-74 -48,-107l-32 -71c-10,-24 -21,-48 -32,-71l-53 0c-1,5 -5,11 -7,17l-24 53c-6,12 -11,24 -16,36l-16 36c-11,20 -22,49 -32,71 -3,5 -31,66 -32,71zm100 -107l107 0 -53 -124 -54 124z"/>
  <path class="fil0" d="M523 305l47 0c-3,5 -85,104 -92,112l-22 27c-8,10 -15,19 -23,28l-29 35c-2,3 -1,7 -1,11 0,9 0,17 0,26l243 0 0 -44c-6,-1 -114,-1 -129,-1 -13,0 -32,2 -43,0l158 -194c5,-6 8,-6 8,-16l0 -29c-22,-1 -64,0 -89,0 -3,4 -15,25 -21,33 -2,3 -6,9 -7,12z"/>
  <path class="fil0" d="M143 304l95 1 0 239c6,0 17,-10 23,-13 7,-5 14,-11 21,-16 4,-4 8,-5 9,-9l0 -201 94 0 0 -45 -241 0 -1 44z"/>
  <path class="fil0" d="M579 133c-9,32 -20,61 -34,87 -21,39 -45,78 -71,112 -5,6 -9,12 -14,17l-42 50c-3,3 -5,5 -8,8l-7 8c-9,9 -19,21 -30,31 -5,5 -11,9 -16,15l-40 36c-42,34 -89,69 -138,92 -28,13 -62,27 -98,27 -77,0 -70,-77 -54,-131 3,-8 7,-18 7,-27 0,-10 1,-24 0,-34 -5,6 -20,48 -23,59 -7,23 -12,48 -11,73 3,51 37,80 92,76 78,-6 173,-70 233,-121l29 -24c2,-3 3,-3 5,-5l16 -15c2,-2 3,-3 5,-5 6,-6 31,-31 36,-37l25 -28c46,-49 112,-147 133,-201 4,-10 9,-20 12,-30 4,-10 8,-23 10,-33l-17 0z"/>
  <polygon class="fil0" points="50,544 103,544 103,260 51,260 "/>
  <path class="fil0" d="M147 252l22 0c3,-5 32,-37 36,-41 2,-2 3,-3 5,-5l34 -34c4,-3 7,-6 10,-9l21 -18c42,-36 99,-79 150,-102 26,-12 60,-26 90,-27 21,0 19,2 35,5 3,-7 6,-9 9,-14 -15,-11 -54,-7 -73,-3 -31,6 -62,20 -90,35 -29,16 -49,29 -77,49 -17,13 -31,25 -46,37l-28 24c-15,14 -37,34 -48,47l-40 44c-1,1 -1,2 -2,3 -2,1 -2,1 -3,2 -2,3 -4,4 -5,7z"/>
  <path class="fil0" d="M591 111c5,-6 34,-52 35,-56 10,-28 -10,-53 -36,-53 -25,1 -43,26 -34,52 2,9 19,33 26,43 2,3 6,11 9,14zm-6 -91c-9,3 -17,13 -14,25 7,26 47,16 40,-11 -3,-9 -13,-18 -26,-14z"/>
  <path class="fil0" d="M406 305l77 0c4,-4 12,-17 16,-22 3,-5 13,-19 14,-23l-107 0 0 45z"/>
  <path class="fil0" d="M119 290l0 22c4,-2 12,-14 14,-17 4,-5 3,-7 3,-14 0,-5 0,-10 -1,-15 -3,3 -6,7 -9,11 -3,4 -7,6 -7,13z"/>
  <path class="fil1" d="M444 593c-4,-8 -12,-10 -19,-10 -10,0 -20,4 -20,15 0,11 10,13 20,15 7,0 11,2 11,7 0,5 -5,7 -11,7 -6,0 -12,-2 -14,-7l-8 4c4,9 12,12 22,12 11,0 21,-5 21,-16 0,-12 -10,-15 -20,-16 -6,-1 -11,-2 -11,-6 0,-4 3,-7 10,-7 5,0 10,3 12,6l7 -4z"/>
  <polygon id="1" class="fil1" points="462,635 462,585 453,585 453,635 "/>
  <path id="2" class="fil1" d="M514 591c-5,-5 -12,-8 -18,-8 -18,0 -27,13 -27,27 0,13 8,26 27,26 8,0 14,-4 19,-9l0 -21 -21 0 0 8 13 0 0 9c-4,3 -8,4 -11,4 -13,0 -18,-8 -18,-17 0,-10 7,-18 18,-18 4,0 9,2 12,5l6 -6z"/>
  <path id="3" class="fil1" d="M550 603c-4,-3 -8,-4 -14,-4 -6,0 -14,2 -14,10 0,8 8,11 14,11 5,1 7,2 7,4 0,3 -3,4 -6,4 -4,0 -10,-2 -12,-5l-5 7c6,5 11,6 17,6 10,0 15,-6 15,-12 0,-9 -9,-11 -15,-11 -5,0 -7,-2 -7,-4 0,-2 2,-3 7,-3 3,0 6,0 8,3l5 -6z"/>
  <path id="4" class="fil1" d="M592 613c4,0 7,0 11,0l0 7c0,5 -7,7 -11,7 -5,0 -10,-2 -10,-7 0,-3 3,-7 10,-7zm20 0l4 0 0 -8c-8,0 -16,0 -24,0 -3,0 -9,-1 -9,-6 0,-3 2,-7 10,-7 5,0 9,2 9,6l9 0c0,-11 -10,-14 -18,-14 -9,0 -19,4 -19,15 0,4 2,9 6,10 -4,2 -7,6 -7,10 0,13 9,16 20,16 5,0 10,-1 14,-7 1,6 5,7 9,7l0 -10c-3,0 -4,-2 -4,-5l0 -7z"/>
  <polygon id="5" class="fil1" points="648,635 648,585 638,585 638,635 "/>
  <path id="6" class="fil1" d="M690 635l0 -19c0,-11 -6,-17 -15,-17 -4,0 -8,2 -11,5l-1 -5 -7 0 0 36 8 0 0 -18c0,-6 4,-10 9,-10 6,0 9,4 9,9l0 19 8 0z"/>
  <path id="7" class="fil1" d="M722 600c-3,-1 -6,-2 -8,-2 -10,0 -18,7 -18,18 0,11 7,18 18,18 4,0 9,2 9,7 0,5 -4,7 -9,7 -5,0 -9,-3 -9,-7l-9 0c0,9 8,15 18,15 10,0 17,-6 17,-15 0,-5 -1,-9 -7,-12 6,-2 7,-9 7,-13 0,-4 -1,-7 -3,-10l4 -5 -7 -5 -3 4zm-8 6c5,0 9,4 9,10 0,6 -4,10 -9,10 -5,0 -9,-4 -9,-10 0,-6 4,-10 9,-10z"/>
  <path id="8" class="fil1" d="M772 620c1,-14 -6,-22 -18,-22 -11,0 -19,8 -19,19 0,11 8,18 20,18 5,0 11,-1 15,-5l-6 -6c-2,2 -6,4 -9,4 -6,0 -10,-4 -11,-8l28 0zm-28 -7c2,-5 6,-7 10,-7 5,0 9,2 9,7l-19 0z"/>
  <path id="9" class="fil1" d="M813 635l0 -19c0,-11 -7,-17 -15,-17 -4,0 -8,2 -12,5l0 -5 -8 0 0 36 9 0 0 -18c0,-6 3,-10 9,-10 5,0 8,4 8,9l0 19 9 0z"/>
  <path id="10" class="fil1" d="M829 599l0 36 -9 0 0 -36 9 0zm-9 -9c0,6 10,6 10,0 0,-7 -10,-7 -10,0z"/>
  <path id="11" class="fil1" d="M872 620c1,-14 -6,-22 -18,-22 -12,0 -19,8 -19,19 0,11 7,18 20,18 5,0 11,-1 15,-5l-6 -6c-2,2 -6,4 -9,4 -6,0 -10,-4 -11,-8l28 0zm-28 -7c2,-5 5,-7 10,-7 5,0 9,2 9,7l-19 0z"/>
  <path id="12" class="fil1" d="M878 600l0 35 9 0 0 -19c0,-6 4,-9 9,-9 3,0 4,1 6,2l4 -7c-2,-2 -6,-3 -9,-3 -4,0 -7,0 -10,5l-1 -4 -8 0z"/>
  <path id="13" class="fil1" d="M922 585l-10 0 -3 10 0 0 7 0 6 -10 0 0zm-13 50l0 -34 9 0 0 34 -9 0z"/>
  <path id="14" class="fil1" d="M954 604c-2,-3 -7,-5 -12,-5 -10,0 -18,6 -18,18 0,12 8,19 18,19 4,0 10,-2 12,-7l0 6 8 0 0 -35 -8 0 0 4zm-11 2c14,0 14,22 0,22 -6,0 -10,-4 -10,-11 0,-7 4,-11 10,-11z"/>
 </g>
</svg>
